<?xml version="1.0" standalone="no"?>
<!DOCTYPE svg PUBLIC "-//W3C//DTD SVG 20010904//EN"
 "http://www.w3.org/TR/2001/REC-SVG-20010904/DTD/svg10.dtd">
<svg version="1.0" xmlns="http://www.w3.org/2000/svg"
 width="300.000000pt" height="300.000000pt" viewBox="0 0 300.000000 300.000000"
 preserveAspectRatio="xMidYMid meet">
<metadata>
Created by potrace 1.11, written by Peter Selinger 2001-2013
</metadata>
<g transform="translate(0.000000,300.000000) scale(0.100000,-0.100000)"
fill="#000000" stroke="none">
<path d="M1379 2916 c-2 -2 -31 -6 -64 -10 -131 -14 -319 -72 -461 -144 -156
-79 -358 -245 -466 -382 -158 -201 -265 -457 -296 -705 -14 -112 -5 -357 17
-462 57 -273 185 -514 374 -707 126 -129 217 -197 362 -273 122 -63 290 -122
396 -138 24 -4 69 -11 99 -15 57 -9 323 -6 375 4 168 33 303 74 395 121 l45
23 47 -43 c52 -46 128 -87 201 -106 62 -15 178 -6 249 21 113 42 227 164 259
277 14 50 19 176 8 229 -12 54 -59 141 -103 191 l-43 48 29 60 c38 80 83 220
104 330 19 97 25 356 11 455 -85 599 -535 1077 -1132 1201 -90 19 -392 38
-406 25z"/>
</g>
</svg>
