<?xml version="1.0" standalone="no"?>
<!DOCTYPE svg PUBLIC "-//W3C//DTD SVG 20010904//EN"
 "http://www.w3.org/TR/2001/REC-SVG-20010904/DTD/svg10.dtd">
<svg version="1.0" xmlns="http://www.w3.org/2000/svg"
 width="700.000000pt" height="700.000000pt" viewBox="0 0 700.000000 700.000000"
 preserveAspectRatio="xMidYMid meet">
<metadata>
Created by potrace 1.11, written by Peter Selinger 2001-2013
</metadata>
<g transform="translate(0.000000,700.000000) scale(0.100000,-0.100000)"
fill="#000000" stroke="none">
<path d="M3225 6924 c-16 -2 -73 -9 -125 -15 -540 -59 -1091 -268 -1548 -586
-171 -119 -296 -225 -468 -397 -298 -299 -496 -578 -673 -946 -157 -331 -251
-650 -307 -1050 -14 -97 -18 -192 -18 -420 0 -321 9 -418 64 -690 250 -1226
1166 -2227 2370 -2590 148 -44 416 -100 580 -122 140 -17 670 -18 800 0 734
100 1333 368 1865 833 485 424 849 999 1030 1629 163 567 173 1198 29 1775
-324 1290 -1377 2283 -2684 2530 -206 39 -298 46 -590 50 -162 2 -308 1 -325
-1z m95 -223 l0 -49 -67 -7 c-146 -13 -364 -47 -478 -75 -209 -50 -463 -139
-625 -219 l-59 -29 -14 21 c-42 66 -43 64 22 96 212 107 544 215 821 266 100
18 297 42 358 44 l42 1 0 -49z m501 39 c360 -36 716 -134 1052 -289 96 -44 94
-39 50 -108 l-14 -21 -87 40 c-325 150 -663 242 -1021 278 -57 5 -105 10 -107
10 -2 0 -4 23 -4 50 0 36 4 50 14 50 8 0 60 -5 117 -10z m-187 -262 l81 -3
-62 -44 c-35 -24 -63 -47 -63 -51 0 -3 9 -34 21 -69 12 -34 19 -65 16 -67 -3
-3 -31 13 -62 36 l-56 41 -64 -46 c-36 -25 -65 -44 -65 -42 0 2 11 37 25 77
14 40 24 74 22 75 -1 1 -29 22 -62 46 l-60 44 78 3 c50 2 79 7 82 15 2 7 14
39 26 72 l22 60 20 -72 20 -72 81 -3z m-1886 -299 c13 -22 22 -42 20 -43 -333
-228 -609 -493 -821 -789 -32 -45 -62 -88 -66 -95 -7 -12 -15 -11 -50 8 -22
13 -41 28 -41 32 0 12 64 105 137 200 149 193 353 402 543 553 95 76 233 174
245 175 6 0 20 -19 33 -41z m3613 -11 c145 -101 276 -213 430 -367 162 -163
229 -241 348 -405 l72 -100 -38 -23 c-21 -13 -42 -23 -48 -22 -5 0 -43 47 -84
104 -102 144 -285 350 -422 474 -98 89 -290 241 -368 292 l-24 15 23 42 c13
23 27 42 30 42 4 0 40 -23 81 -52z m-3324 -34 l32 -26 65 37 c37 20 66 35 66
32 0 -3 -14 -36 -31 -74 l-31 -68 59 -52 c64 -59 63 -59 -44 -44 l-52 7 -30
-68 c-17 -37 -33 -68 -35 -68 -2 0 -11 33 -20 74 l-17 74 -75 7 c-40 4 -74 10
-74 14 0 3 29 22 65 41 44 24 63 40 60 50 -2 8 -11 43 -19 78 l-14 62 31 -26
c18 -14 46 -36 64 -50z m3007 -1 c-8 -37 -13 -72 -10 -78 2 -6 32 -26 67 -45
l64 -34 -50 -9 c-109 -18 -108 -16 -125 -84 -8 -34 -18 -64 -21 -67 -3 -4 -19
23 -35 59 l-29 65 -50 -5 c-27 -3 -63 -8 -80 -11 -28 -5 -26 -2 30 49 l59 54
-16 39 c-8 21 -23 56 -32 77 l-17 38 48 -27 c26 -15 58 -33 69 -40 20 -12 27
-9 79 36 31 28 58 50 59 50 2 0 -3 -30 -10 -67z m-1724 -42 l0 -50 -57 -6
c-292 -33 -542 -99 -780 -204 l-88 -39 -22 37 c-13 20 -23 41 -23 46 1 25 341
152 535 199 115 28 333 64 398 65 l37 1 0 -49z m516 34 c212 -27 423 -80 591
-145 131 -52 223 -93 223 -101 0 -14 -42 -79 -50 -79 -4 0 -37 13 -72 28 -145
66 -340 128 -503 162 -80 17 -297 50 -327 50 -4 0 -8 23 -8 50 0 59 -10 56
146 35z m49 -294 c395 -68 766 -232 1079 -478 107 -84 333 -316 413 -424 292
-391 454 -839 470 -1301 l6 -157 -40 -53 c-22 -29 -53 -72 -68 -96 -20 -30
-31 -39 -35 -30 -4 7 -11 83 -14 168 -13 274 -55 450 -138 572 -36 53 -63 68
-210 123 -45 17 -48 16 -85 -1 -74 -37 -111 -127 -120 -297 l-6 -108 -34 62
c-39 74 -88 127 -123 136 -14 3 -29 9 -35 13 -5 4 -38 17 -72 29 -67 22 -97
19 -137 -17 -51 -46 -86 -190 -86 -360 0 -48 -9 -222 -20 -387 -11 -165 -20
-352 -20 -416 0 -64 -3 -118 -6 -122 -4 -3 -22 6 -41 20 -31 24 -33 29 -29 67
3 23 8 71 11 108 l7 67 -46 49 c-25 27 -46 56 -46 65 0 28 -50 76 -86 83 -64
12 -111 -16 -230 -139 -60 -62 -136 -151 -169 -200 l-59 -88 -18 37 c-10 21
-24 44 -32 53 -7 9 -16 32 -20 51 -12 64 -71 108 -126 95 -14 -4 -62 -33 -107
-66 -45 -32 -84 -59 -87 -59 -12 0 -5 130 9 171 20 54 46 83 111 120 103 59
144 115 144 196 0 63 -23 159 -44 182 -9 10 -16 28 -16 40 0 34 -30 90 -56
108 -28 18 -23 32 31 87 43 44 101 51 188 20 100 -35 174 -5 303 124 50 51
102 94 118 98 18 4 53 -2 106 -20 44 -14 93 -26 110 -26 50 0 101 33 168 108
74 84 98 92 177 63 74 -28 117 -27 165 4 83 52 211 252 218 341 7 88 -7 181
-32 212 -17 20 -21 34 -16 52 10 35 1 71 -24 98 -17 20 -28 23 -62 19 -41 -4
-42 -4 -48 32 -4 25 -19 49 -46 76 l-40 39 4 75 c3 42 7 83 11 92 9 24 -13 71
-51 105 -19 18 -37 45 -40 62 -12 61 -74 91 -146 72 -31 -9 -66 -36 -145 -113
-107 -104 -191 -217 -271 -365 -22 -41 -42 -69 -46 -64 -3 6 -15 39 -26 74
-44 143 -148 218 -262 188 -84 -23 -222 -195 -310 -387 l-41 -93 -19 30 c-12
20 -18 50 -18 86 0 50 -22 114 -40 114 -3 0 -11 4 -18 8 -9 6 -5 22 17 68 39
80 45 138 26 259 -28 177 -62 213 -203 214 -129 0 -170 -31 -209 -159 -22 -73
-20 -231 3 -289 19 -48 66 -91 99 -91 12 0 28 -7 35 -15 11 -13 8 -15 -14 -15
-37 0 -87 -50 -107 -106 l-17 -49 -1 37 c-1 27 -9 46 -28 67 -39 41 -79 47
-124 19 -60 -37 -274 -284 -360 -413 -43 -66 -79 -113 -79 -105 0 35 -60 138
-102 177 -63 57 -104 77 -163 77 -71 1 -137 -35 -221 -118 -79 -79 -100 -110
-173 -251 l-50 -97 -28 41 c-141 208 -250 328 -385 424 l-77 54 48 84 c195
348 492 651 849 864 268 160 584 268 912 310 155 21 509 13 665 -14z m1260
-260 c110 -85 362 -345 453 -466 45 -60 82 -112 82 -115 0 -5 -15 -14 -81 -48
-4 -1 -28 28 -55 65 -141 197 -346 403 -556 555 l-66 48 25 45 25 45 51 -37
c29 -21 84 -62 122 -92z m-3096 85 c12 -18 21 -38 21 -43 0 -6 -39 -40 -87
-76 -187 -140 -365 -319 -507 -509 l-73 -96 -42 24 -41 25 17 31 c65 111 302
374 448 498 89 75 226 180 237 180 3 0 16 -15 27 -34z m1349 -373 c4 -43 18
-42 36 2 18 42 48 47 71 12 21 -33 31 -164 16 -223 -22 -86 -87 -148 -131
-124 -12 6 -20 16 -19 23 7 56 -17 61 -35 7 -14 -44 -31 -48 -49 -13 -35 68
-28 223 14 304 20 41 32 49 69 46 20 -2 26 -8 28 -34z m1436 -3 c-1 -14 -5
-34 -9 -44 -7 -16 -5 -18 10 -13 28 11 46 -10 33 -39 -14 -30 -6 -39 21 -22
14 9 24 9 31 2 8 -8 -17 -45 -81 -125 -171 -212 -255 -354 -315 -534 -34 -103
-43 -168 -24 -180 49 -30 140 116 275 440 36 87 71 165 77 172 18 22 37 15 94
-34 l54 -48 0 -147 c0 -121 3 -148 14 -148 18 0 82 101 98 153 6 20 15 37 19
37 10 0 -1 -32 -31 -89 -25 -51 -25 -73 1 -42 28 34 35 18 10 -24 -32 -55 -24
-65 15 -20 32 36 35 37 31 15 -2 -14 -8 -33 -12 -42 -5 -13 -2 -15 15 -11 22
6 22 6 5 -28 -56 -109 -178 -286 -217 -313 -33 -23 -55 -20 -98 14 -49 39 -80
102 -80 163 0 26 -4 47 -10 47 -5 0 -28 -37 -51 -82 -105 -211 -178 -308 -231
-308 -67 0 -130 57 -169 153 l-16 39 -48 -68 c-134 -188 -255 -304 -314 -304
-65 0 -196 89 -221 151 l-13 30 -39 -73 c-75 -138 -179 -270 -226 -289 -46
-18 -116 31 -146 102 -21 50 -46 243 -46 352 0 105 21 341 45 497 16 108 36
151 55 120 5 -8 10 -26 11 -40 0 -14 4 -34 8 -44 6 -15 11 -8 27 35 16 45 23
55 46 57 19 2 30 -3 38 -17 15 -30 28 -26 44 14 8 19 20 35 25 35 18 0 13 -69
-24 -370 -37 -302 -40 -337 -26 -359 14 -22 42 1 111 91 35 46 67 85 71 88 3
3 9 41 12 85 12 150 71 328 157 479 79 138 171 236 222 236 39 0 89 -33 113
-75 25 -42 62 -235 50 -255 -9 -14 -25 -12 -25 3 0 20 -17 40 -28 33 -6 -3 -6
-22 -2 -48 9 -47 4 -66 -13 -49 -17 17 -27 13 -27 -8 0 -27 -21 -38 -32 -17
-16 29 -28 6 -28 -55 0 -44 -4 -59 -14 -59 -10 0 -18 18 -25 53 -11 54 -31
168 -31 174 0 2 -4 3 -8 3 -30 0 -62 -187 -62 -355 0 -134 11 -191 40 -200 37
-12 113 37 208 134 93 96 109 106 71 44 -24 -38 -21 -50 10 -33 16 8 21 20 21
49 0 60 28 207 56 290 33 101 111 258 175 356 56 85 203 245 254 277 41 25 70
20 69 -12z m-3779 -197 l7 -61 62 -12 c94 -17 95 -23 16 -58 -57 -25 -70 -35
-67 -49 3 -10 8 -45 12 -77 l7 -59 -55 59 -54 58 -69 -31 c-38 -17 -70 -30
-72 -28 -2 1 13 32 33 68 l36 65 -47 53 c-26 29 -42 55 -35 57 6 2 34 -1 61
-7 28 -6 57 -11 64 -11 6 0 28 29 46 64 39 73 43 70 55 -31z m4978 -46 c1 -5
33 -1 70 9 37 9 70 14 74 11 3 -3 -16 -31 -41 -61 l-47 -54 37 -67 c42 -76 42
-76 -59 -29 l-51 23 -53 -57 -54 -57 6 50 c3 28 8 61 11 75 4 24 -2 29 -68 59
l-73 34 40 9 c124 30 113 22 120 86 12 100 14 102 51 36 19 -32 35 -63 37 -67z
m-5353 -118 c0 -4 -16 -43 -36 -86 -148 -321 -241 -666 -275 -1019 l-12 -124
-49 0 -48 0 0 43 c0 68 28 281 56 417 46 232 125 478 224 700 57 127 54 124
101 98 22 -12 39 -25 39 -29z m5763 -46 c145 -311 254 -704 282 -1023 3 -36 8
-84 11 -108 l5 -43 -53 3 -53 3 -7 88 c-25 330 -129 718 -282 1050 -20 43 -36
80 -36 82 0 6 65 45 76 45 6 0 32 -44 57 -97z m-3325 -158 c2 -9 -6 -31 -18
-47 -25 -33 -21 -45 9 -29 35 19 33 -6 -4 -47 -19 -22 -35 -42 -35 -46 0 -3
14 -6 30 -6 27 0 30 -3 30 -30 0 -16 5 -30 10 -30 6 0 10 -11 10 -24 0 -26
-25 -60 -182 -248 -85 -103 -128 -164 -128 -183 0 -14 45 -2 128 35 49 22 99
40 111 40 56 0 99 -47 116 -127 8 -42 -11 -143 -40 -210 -70 -157 -268 -378
-402 -447 -43 -22 -52 -20 -64 11 -9 23 -6 31 28 66 35 36 36 39 13 32 -14 -4
-29 -8 -35 -9 -5 0 -13 31 -18 69 l-8 70 53 45 c106 90 178 164 178 182 0 23
-10 23 -110 -7 -46 -14 -96 -25 -110 -25 -25 0 -28 5 -43 75 -38 171 -31 237
39 377 77 154 165 271 353 471 64 67 83 76 89 42z m-2173 -36 c149 -21 372
-117 507 -220 242 -182 378 -420 395 -691 11 -167 -54 -245 -179 -216 -32 7
-45 6 -56 -6 -13 -12 -6 -29 48 -133 34 -65 121 -220 192 -345 85 -149 128
-233 124 -244 -6 -16 -8 -15 -25 0 -11 10 -24 30 -31 46 -25 60 -71 46 -52
-17 9 -28 8 -40 0 -51 -10 -11 -21 -4 -63 44 -55 62 -82 67 -71 12 7 -36 -16
-48 -44 -23 -16 14 -20 15 -24 4 -15 -49 -17 -52 -28 -41 -16 16 -74 118 -115
202 -20 41 -66 129 -103 196 -147 262 -190 351 -190 397 0 53 25 140 44 156
19 16 61 17 162 8 99 -10 119 2 111 64 -9 70 -149 255 -271 358 -131 111 -332
182 -561 199 -77 6 -90 10 -93 26 -5 24 14 36 61 36 49 0 50 25 2 34 -31 6
-35 11 -35 37 0 23 7 34 35 50 40 24 43 34 15 49 -30 16 -25 48 13 70 34 21
74 21 232 -1z m4965 -101 c86 -190 163 -457 194 -669 23 -153 22 -160 -19
-188 -19 -13 -40 -21 -47 -18 -9 3 -17 43 -25 113 -26 245 -97 500 -207 746
l-26 58 38 24 c20 14 41 24 45 23 5 -1 26 -41 47 -89z m-3485 -156 c22 -15 53
-50 70 -77 28 -45 30 -55 30 -144 0 -76 -4 -105 -21 -141 -31 -67 -124 -161
-256 -262 l-118 -88 18 -48 c13 -36 25 -51 54 -65 48 -24 91 -13 162 42 53 41
167 157 197 202 25 35 35 15 15 -27 -18 -39 -13 -60 8 -32 20 27 27 9 11 -23
-17 -32 -21 -75 -5 -49 13 20 23 6 15 -20 -12 -37 -200 -264 -267 -323 -79
-68 -115 -87 -171 -87 -89 0 -213 93 -236 176 -30 106 -35 196 -18 311 44 306
199 587 370 672 51 25 87 21 142 -17z m1705 -45 c0 -2 -16 -19 -36 -38 -31
-29 -35 -30 -24 -9 13 25 38 49 53 50 4 0 7 -1 7 -3z m-3093 -119 c11 -13 26
-40 33 -61 13 -42 31 -44 40 -6 9 38 45 37 70 -3 18 -29 20 -50 20 -176 0 -78
-4 -218 -10 -310 -5 -92 -11 -297 -14 -455 -4 -292 -8 -317 -43 -317 -8 0 -22
13 -31 30 -19 33 -32 34 -47 4 -24 -46 -26 -47 -51 -23 -26 24 -31 19 -36 -36
-2 -25 -8 -30 -28 -30 -23 0 -25 4 -31 60 -3 33 -5 96 -3 140 10 203 25 576
34 840 12 333 14 352 38 358 32 9 39 7 59 -15z m4287 -184 c3 -9 6 -31 6 -50
0 -41 15 -37 23 6 6 29 37 44 37 18 0 -7 4 -19 9 -26 7 -11 12 -12 29 -1 18
11 24 10 42 -6 32 -29 86 -151 106 -240 26 -115 27 -462 1 -590 -32 -161 -64
-251 -83 -233 -2 3 7 47 21 99 13 52 25 103 25 114 0 18 -2 18 -21 -5 l-21
-25 7 35 c21 118 26 159 31 285 6 150 -5 217 -38 223 -27 5 -37 -50 -53 -303
-25 -405 -18 -735 17 -756 22 -14 69 24 136 108 36 46 68 81 70 79 2 -3 -2
-20 -9 -40 -9 -26 -10 -38 -1 -48 6 -8 8 -25 5 -39 -5 -20 -3 -22 8 -11 42 39
38 -19 -7 -105 -48 -91 -116 -186 -184 -255 -75 -78 -98 -78 -173 -2 -31 30
-67 78 -80 105 l-24 51 -13 -33 c-23 -55 -128 -208 -183 -266 -80 -85 -99 -90
-160 -49 -36 24 -117 133 -117 157 0 32 -15 21 -38 -27 -62 -126 -200 -304
-237 -304 -29 0 -80 40 -109 84 -19 29 -26 53 -26 91 0 27 -4 56 -9 64 -10 15
-14 7 -121 -191 -60 -113 -133 -198 -168 -198 -61 0 -127 53 -161 130 -117
266 39 732 349 1043 94 94 112 108 137 105 23 -2 28 -8 27 -28 -1 -14 -4 -33
-9 -43 -6 -15 -4 -17 18 -12 32 8 43 -9 26 -41 -16 -31 -7 -40 23 -20 23 15
38 13 38 -4 0 -4 -41 -59 -91 -121 -172 -215 -253 -353 -313 -532 -38 -112
-44 -155 -25 -174 44 -44 144 116 280 444 34 81 66 154 71 161 18 21 37 14 94
-35 l54 -47 0 -148 c0 -120 3 -148 14 -148 16 0 66 75 96 144 11 27 23 46 26
43 3 -3 -9 -33 -26 -67 -33 -65 -32 -93 0 -50 27 35 27 2 0 -42 -32 -52 -23
-57 20 -10 l39 44 -11 86 c-12 97 -5 556 12 762 5 69 14 222 19 340 10 226 24
303 62 341 27 27 47 11 51 -44 3 -33 5 -38 12 -22 22 58 42 69 52 31 7 -30 8
-30 34 -14 27 17 53 -9 95 -97 58 -121 68 -183 69 -425 1 -168 -3 -237 -18
-315 -29 -156 -62 -252 -81 -233 -3 2 7 46 20 97 14 51 25 102 25 113 0 19 -1
19 -20 -3 -24 -29 -24 -23 -5 66 9 39 18 140 22 225 5 129 3 161 -10 193 -17
39 -28 45 -44 25 -18 -23 -23 -62 -38 -305 -24 -391 -18 -714 15 -747 18 -18
61 16 137 110 l73 89 0 215 c0 118 7 321 15 450 9 129 19 325 24 435 9 212 24
284 63 318 25 21 34 21 42 1z m-3903 -176 c16 -23 29 -45 29 -50 0 -10 -35
-11 -79 -2 -25 5 -31 11 -31 33 0 31 27 74 41 65 6 -3 24 -24 40 -46z m-836
-233 c21 -30 44 -55 50 -55 7 0 38 9 70 20 32 11 62 20 67 20 5 0 -11 -28 -35
-62 l-45 -62 45 -63 c25 -35 43 -63 41 -63 -3 0 -37 11 -76 24 l-72 25 -43
-60 -42 -61 -3 76 -3 75 -69 23 c-39 12 -70 25 -70 29 0 4 24 13 53 19 86 21
87 22 87 100 0 39 2 70 4 70 2 0 21 -25 41 -55z m5948 -145 l72 -24 -70 -21
-70 -21 -5 -80 -5 -79 -44 63 c-46 65 -50 67 -105 46 -21 -8 -32 40 -16 71 11
20 10 28 -2 47 -12 19 -30 88 -23 88 2 0 22 -7 45 -15 23 -8 46 -15 50 -15 4
0 27 28 51 63 l44 62 3 -81 3 -80 72 -24z m-358 140 c4 -6 -3 -27 -14 -46 -27
-45 -27 -58 -2 -44 26 13 31 13 31 -3 0 -7 -13 -26 -30 -42 -36 -35 -39 -58
-7 -53 17 2 23 -3 25 -22 2 -14 10 -32 18 -41 23 -25 8 -50 -133 -219 -140
-170 -163 -202 -163 -225 0 -23 17 -19 115 25 106 47 142 50 184 15 86 -73 62
-249 -58 -430 -81 -122 -244 -280 -340 -330 -33 -17 -35 -17 -48 1 -20 27 -16
45 19 81 l32 33 -31 -6 c-17 -3 -33 -2 -36 3 -3 5 -7 37 -9 71 l-3 63 45 37
c122 101 190 170 190 195 0 13 -44 7 -125 -18 -111 -35 -122 -33 -134 13 -18
67 -31 155 -31 202 0 146 129 373 348 615 117 128 142 149 157 125z m-2829
-69 c23 -10 44 -23 48 -29 5 -8 -312 -187 -320 -179 -2 1 8 16 22 32 15 17 40
50 57 75 52 76 102 117 142 119 6 0 29 -8 51 -18z m294 -31 c8 -16 7 -27 -7
-51 -17 -29 -17 -31 0 -43 21 -16 22 -55 2 -82 -20 -27 -19 -44 4 -44 11 0 22
-4 26 -9 10 -17 -29 -44 -141 -97 -62 -29 -119 -62 -128 -75 -14 -20 -16 -59
-16 -275 0 -138 3 -254 7 -257 9 -9 40 12 153 103 161 130 198 154 215 140 21
-18 19 -34 -10 -68 -26 -31 -23 -41 18 -55 21 -8 23 -50 2 -67 -23 -19 -18
-40 10 -40 53 0 27 -35 -82 -113 -236 -168 -297 -219 -304 -257 -4 -19 -13
-179 -18 -355 -6 -176 -14 -367 -17 -425 -3 -58 -5 -137 -4 -176 0 -58 -3 -74
-20 -89 -29 -26 -50 -5 -50 51 0 50 -11 61 -42 40 -35 -25 -47 -19 -54 24 -8
50 -22 60 -44 30 -12 -16 -23 -21 -35 -16 -17 6 -18 21 -11 214 3 114 11 225
17 247 16 66 24 315 10 315 -7 0 -67 -35 -134 -79 -175 -112 -184 -116 -171
-65 7 28 3 29 -37 8 -35 -18 -33 -19 -46 21 -8 25 -15 30 -39 29 -16 -1 -39
-5 -50 -9 -17 -5 -23 -2 -27 15 -8 30 4 40 267 219 124 84 230 159 236 166 13
15 0 528 -13 541 -11 11 -82 -26 -227 -116 -132 -83 -199 -120 -214 -120 -4 0
-6 12 -3 26 6 33 -15 42 -48 20 -40 -26 -57 -21 -53 17 3 31 1 32 -35 35 -46
4 -70 39 -46 68 32 39 518 339 769 474 74 40 185 102 245 136 61 35 115 64
122 64 7 0 17 -9 23 -20z m-1739 -214 c64 -80 132 -124 247 -161 66 -22 151
-16 212 13 25 12 77 53 117 92 40 38 85 76 101 84 28 15 29 14 24 -9 -12 -63
51 -145 111 -145 31 0 67 -15 57 -23 -3 -2 -77 -51 -165 -109 -166 -108 -199
-138 -210 -189 -9 -39 21 -98 62 -124 18 -11 32 -25 33 -32 0 -18 50 -53 77
-53 13 0 35 -8 49 -17 19 -12 49 -17 112 -17 93 -1 86 -3 247 83 l60 33 7 -84
c3 -46 6 -112 6 -148 l1 -65 -236 -160 c-146 -99 -243 -171 -255 -190 -45 -74
0 -174 80 -175 19 0 35 -6 38 -14 3 -8 20 -20 37 -26 18 -7 47 -19 65 -27 48
-21 148 -21 205 1 26 11 50 16 53 13 3 -2 0 -33 -6 -66 -6 -34 -12 -158 -13
-275 -2 -203 -1 -216 19 -243 11 -15 34 -32 50 -38 16 -5 43 -20 61 -32 17
-13 38 -23 47 -23 9 0 16 -2 16 -4 0 -2 3 -12 7 -22 6 -16 1 -16 -53 -10 -250
29 -599 149 -825 282 l-92 55 -38 -27 c-35 -24 -45 -26 -109 -22 -38 2 -70 1
-70 -2 0 -3 13 -16 29 -30 l30 -25 -25 -42 -26 -43 -42 29 -42 29 -32 -20 -32
-20 -49 31 c-27 18 -59 46 -71 64 -22 32 -22 32 -99 29 -72 -4 -79 -2 -110 23
-60 51 -89 143 -67 213 5 15 -2 23 -34 37 -51 23 -105 82 -136 149 -66 142 16
319 162 345 l31 6 -55 95 c-70 121 -141 278 -182 404 l-33 100 21 37 c15 26
24 67 31 143 6 59 16 116 22 128 l11 21 19 -24 c10 -13 47 -80 82 -149 137
-268 163 -300 230 -282 19 5 40 6 48 1 23 -12 227 -32 264 -25 19 4 49 19 66
33 29 25 31 30 27 82 -3 49 -17 80 -114 251 -145 257 -149 267 -122 310 18 29
29 25 69 -24z m4835 -68 c-3 -29 -8 -80 -11 -113 -26 -268 -112 -610 -221
-877 -44 -109 -101 -228 -109 -228 -11 0 -75 43 -75 51 0 5 20 53 44 106 139
310 241 694 261 985 10 132 7 128 66 128 l50 0 -5 -52z m-6363 -110 c38 -347
130 -673 280 -1000 l36 -77 -44 -24 -43 -25 -45 97 c-108 230 -186 465 -237
711 -28 139 -60 369 -60 437 0 33 0 33 48 33 l48 0 17 -152z m687 -413 c24 5
27 2 59 -87 18 -51 51 -131 72 -178 l38 -84 -37 -23 c-20 -12 -40 -23 -44 -23
-18 0 -111 220 -151 357 l-16 52 26 -10 c15 -5 38 -7 53 -4z m2702 -427 c-9
-38 -16 -112 -16 -188 -1 -145 21 -234 76 -312 61 -85 122 -118 220 -118 82 0
131 25 187 94 68 86 106 103 161 71 29 -16 136 -20 174 -6 13 6 56 43 95 83
69 71 72 73 118 73 27 0 64 -8 83 -18 19 -10 53 -21 76 -24 68 -9 117 23 231
149 55 61 91 69 176 37 34 -12 64 -24 66 -25 2 -2 -18 -34 -45 -71 -64 -90
-265 -296 -379 -388 -321 -261 -717 -436 -1125 -500 -130 -20 -454 -32 -427
-15 23 15 43 56 51 105 4 22 13 225 20 450 13 387 15 414 36 463 12 28 40 68
62 88 40 36 155 114 168 114 4 0 0 -28 -8 -62z m-2683 -110 c-14 -100 -16 -96
63 -132 l73 -33 -78 -17 c-42 -10 -77 -18 -78 -19 0 -1 -6 -38 -13 -82 l-12
-80 -34 64 c-19 35 -40 65 -47 68 -8 3 -41 -2 -75 -10 -35 -9 -64 -14 -66 -12
-3 2 17 30 44 61 l49 57 -38 69 c-20 39 -32 68 -25 65 7 -3 41 -17 74 -32 l61
-27 53 56 c29 31 54 56 55 56 1 0 -2 -24 -6 -52z m5043 -76 l-36 -69 49 -58
50 -58 -45 9 c-25 4 -61 8 -80 9 -32 0 -37 -4 -70 -64 l-35 -64 -8 59 c-15
108 -9 100 -94 119 l-77 17 72 33 c67 32 72 36 72 66 0 19 7 37 18 45 14 11
21 9 44 -14 l28 -26 67 31 c38 17 71 32 75 32 4 1 -9 -30 -30 -67z m-470 -75
l37 -22 -75 -100 c-141 -189 -347 -396 -533 -535 -51 -38 -96 -70 -100 -70
-12 0 -53 82 -44 90 4 4 34 26 66 49 201 146 414 362 557 564 18 26 38 47 44
47 6 0 28 -10 48 -23z m558 -332 c0 -14 -96 -148 -189 -265 -91 -114 -283
-314 -398 -413 -107 -92 -314 -247 -330 -247 -7 0 -22 19 -34 42 -18 35 -19
42 -6 49 42 24 246 184 343 270 164 145 345 348 477 537 l57 80 40 -21 c22
-12 40 -27 40 -32z m-5284 -32 c198 -283 508 -590 783 -778 l71 -48 -22 -36
c-12 -20 -24 -39 -28 -44 -7 -8 -159 97 -265 183 -247 201 -449 417 -629 673
-27 37 -46 71 -42 74 13 13 62 42 73 42 6 1 33 -29 59 -66z m3720 -526 l15
-27 -58 -26 c-248 -112 -501 -184 -766 -219 -159 -20 -147 -23 -147 35 0 56
-16 49 155 70 208 26 504 109 685 193 83 39 82 39 116 -26z m-2521 -83 c17 2
50 7 75 11 l45 6 -58 -54 -59 -54 31 -68 c17 -37 29 -70 27 -72 -3 -3 -33 11
-68 31 l-63 35 -58 -50 c-62 -55 -63 -54 -43 39 l14 63 -70 38 -70 39 41 6
c22 3 59 9 80 12 l40 6 17 75 18 75 36 -72 c33 -68 36 -71 65 -66z m409 86
c189 -81 467 -155 651 -174 143 -15 135 -12 135 -67 0 -57 12 -54 -147 -34
-159 21 -283 48 -438 94 -118 36 -375 137 -375 147 0 12 41 84 48 84 4 0 60
-23 126 -50z m2447 -44 c12 -65 13 -65 51 -70 21 -3 57 -9 80 -12 l41 -6 -57
-33 c-32 -18 -62 -37 -67 -42 -7 -7 -5 -33 6 -78 8 -37 14 -69 13 -71 -2 -1
-30 19 -62 46 l-59 48 -62 -34 c-34 -19 -64 -34 -68 -34 -3 0 9 32 26 71 l32
72 -60 54 -60 55 45 -7 c25 -3 59 -9 77 -12 31 -5 33 -3 64 60 18 36 36 64 40
62 4 -3 13 -34 20 -69z m-1432 -381 c33 25 61 41 61 37 0 -5 -9 -35 -20 -67
-11 -32 -20 -64 -20 -70 0 -7 28 -32 63 -56 l62 -44 -82 -3 -82 -3 -24 -72
-24 -72 -17 60 c-10 33 -19 66 -21 73 -3 8 -28 12 -80 12 -41 0 -75 3 -74 8 0
4 27 26 59 49 l59 42 -24 72 c-14 40 -25 74 -25 76 0 2 29 -16 64 -42 l64 -45
61 45z m1398 -94 c27 -48 30 -45 -105 -105 -351 -158 -679 -243 -1084 -281
l-68 -7 0 51 0 50 43 5 c23 3 87 10 142 16 298 34 642 129 915 255 63 29 120
54 125 54 6 0 20 -17 32 -38z m-2746 -15 c116 -54 309 -124 454 -165 185 -51
340 -79 608 -106 l57 -6 0 -50 c0 -57 11 -54 -141 -39 -247 25 -501 80 -737
162 -139 47 -392 154 -392 165 0 11 44 83 50 83 4 0 49 -20 101 -44z"/>
<path d="M4255 4259 c-9 -17 -14 -33 -11 -37 8 -8 46 28 46 44 0 27 -20 23
-35 -7z"/>
<path d="M3657 4186 c-21 -47 -19 -60 6 -41 13 9 17 23 15 47 l-3 33 -18 -39z"/>
<path d="M3662 4123 c-15 -28 -15 -33 2 -33 8 0 17 -6 19 -12 3 -7 5 -4 6 7 0
11 -4 29 -8 40 -8 19 -8 19 -19 -2z"/>
<path d="M2189 4135 c-28 -63 -48 -162 -56 -280 l-6 -100 32 25 c34 26 41 45
17 45 -29 0 -26 14 8 42 42 33 46 46 11 37 -40 -10 -30 12 31 69 77 71 89 97
68 140 -18 35 -51 66 -72 67 -7 0 -22 -20 -33 -45z"/>
<path d="M5170 2609 c-11 -25 -11 -35 -1 -51 6 -10 9 -28 6 -39 -5 -14 -3 -17
10 -13 13 5 15 17 9 68 -4 33 -8 62 -9 64 -1 1 -8 -12 -15 -29z"/>
<path d="M4695 2329 c-4 -11 -4 -23 -2 -26 9 -8 27 7 27 22 0 23 -18 27 -25 4z"/>
<path d="M1840 2451 c-76 -132 -102 -190 -130 -298 l-11 -42 -32 19 c-46 27
-121 43 -162 36 -76 -15 -140 -105 -128 -181 11 -72 57 -141 115 -171 38 -20
48 -18 48 11 0 57 55 115 109 115 31 0 67 -40 85 -94 14 -44 14 -51 1 -66 -19
-21 -19 -29 0 -51 14 -15 14 -18 0 -33 -25 -24 -54 -19 -86 15 l-30 32 -24
-23 c-47 -44 -41 -114 14 -164 16 -15 29 -17 68 -11 26 3 59 14 72 22 16 10
26 12 29 5 8 -26 67 -105 88 -119 22 -14 26 -14 49 1 14 9 39 41 56 71 30 54
31 54 57 41 47 -24 108 -29 135 -12 47 31 60 96 30 147 -24 40 -38 42 -72 9
-32 -33 -62 -38 -81 -15 -9 11 -9 19 4 36 14 20 14 25 0 49 -13 21 -14 33 -5
67 18 64 42 88 91 88 35 0 47 -6 71 -33 16 -18 29 -42 29 -55 0 -43 14 -51 55
-31 69 32 124 137 111 213 -8 49 -49 105 -92 126 -48 23 -120 15 -188 -20 -27
-14 -49 -24 -50 -23 -1 2 -9 35 -19 73 -17 69 -75 194 -134 289 l-31 49 -42
-72z"/>
<path d="M1625 1850 c-3 -5 -2 -10 4 -10 5 0 13 5 16 10 3 6 2 10 -4 10 -5 0
-13 -4 -16 -10z"/>
</g>
</svg>
